<?xml version="1.0" encoding="utf-8"?>
<svg xmlns="http://www.w3.org/2000/svg" style="margin: auto; background: none; display: block; shape-rendering: auto;" width="280" height="250" preserveAspectRatio="xMidYMid">
<style type="text/css">
  text {
    text-anchor: middle; font-size: 49px; opacity: 0;
  }
</style>
<g style="transform-origin: 140px 125px; transform: scale(0.6125);">
<g transform="translate(140,125)">
  <g transform="translate(0,0)"><g class="path" style="opacity: 1; transform-origin: -96.91px -5.88284px; animation: 2.77778s linear -1.46667s infinite normal forwards running blink-70d40edf-64ea-47a5-b813-a86abcdc4f55;"><path d="M21.88-24.53L21.88 0L6.37 0L6.37-56.25L46.76-56.25L46.76-49.06L21.88-49.06L21.88-31.68L41.09-31.68L41.09-24.53L21.88-24.53" fill="#ffb6bb" stroke="none" stroke-width="none" transform="translate(-123.47503662109375,22.24215795898438)" style="fill: rgb(255, 182, 187);"></path></g><g class="path" style="opacity: 1; transform-origin: -50.7px -0.41284px; animation: 2.77778s linear -1.1s infinite normal forwards running blink-70d40edf-64ea-47a5-b813-a86abcdc4f55;"><path d="M96.76-45.12L96.76 0L83.55 0L83.55-5.39L83.55-5.39Q81.21-2.19 77.91-0.64L77.91-0.64L77.91-0.64Q74.61 0.90 70.66 0.90L70.66 0.90L70.66 0.90Q65.51 0.90 61.45-0.94L61.45-0.94L61.45-0.94Q57.38-2.77 54.57-5.96L54.57-5.96L54.57-5.96Q51.76-9.14 50.27-13.44L50.27-13.44L50.27-13.44Q48.79-17.73 48.79-22.66L48.79-22.66L48.79-22.66Q48.79-27.58 50.27-31.88L50.27-31.88L50.27-31.88Q51.76-36.17 54.57-39.36L54.57-39.36L54.57-39.36Q57.38-42.54 61.45-44.38L61.45-44.38L61.45-44.38Q65.51-46.21 70.66-46.21L70.66-46.21L70.66-46.21Q73.28-46.21 75.64-45.43L75.64-45.43L75.64-45.43Q78.01-44.65 79.98-43.22L79.98-43.22L79.98-43.22Q81.95-41.80 83.46-39.79L83.46-39.79L83.46-39.79Q84.96-37.77 85.82-35.31L85.82-35.31L91.68-45.12L96.76-45.12zM83.48-22.66L83.48-22.66L83.48-22.66Q83.48-24.41 83.30-26.37L83.30-26.37L83.30-26.37Q83.13-28.32 82.70-30.23L82.70-30.23L82.70-30.23Q82.27-32.15 81.50-33.89L81.50-33.89L81.50-33.89Q80.74-35.63 79.55-36.97L79.55-36.97L79.55-36.97Q78.36-38.32 76.68-39.10L76.68-39.10L76.68-39.10Q75-39.88 72.77-39.88L72.77-39.88L72.77-39.88Q70.55-39.88 68.91-39.08L68.91-39.08L68.91-39.08Q67.27-38.28 66.09-36.93L66.09-36.93L66.09-36.93Q64.92-35.59 64.16-33.83L64.16-33.83L64.16-33.83Q63.40-32.07 62.97-30.16L62.97-30.16L62.97-30.16Q62.54-28.24 62.36-26.31L62.36-26.31L62.36-26.31Q62.19-24.38 62.19-22.66L62.19-22.66L62.19-22.66Q62.19-20.94 62.36-18.98L62.36-18.98L62.36-18.98Q62.54-17.03 62.97-15.12L62.97-15.12L62.97-15.12Q63.40-13.20 64.16-11.45L64.16-11.45L64.16-11.45Q64.92-9.69 66.09-8.34L66.09-8.34L66.09-8.34Q67.27-6.99 68.91-6.19L68.91-6.19L68.91-6.19Q70.55-5.39 72.77-5.39L72.77-5.39L72.77-5.39Q74.80-5.39 76.39-6.23L76.39-6.23L76.39-6.23Q77.97-7.07 79.16-8.48L79.16-8.48L79.16-8.48Q80.35-9.88 81.17-11.68L81.17-11.68L81.17-11.68Q81.99-13.48 82.50-15.39L82.50-15.39L82.50-15.39Q83.01-17.30 83.24-19.20L83.24-19.20L83.24-19.20Q83.48-21.09 83.48-22.66" fill="#ffb6bb" stroke="none" stroke-width="none" transform="translate(-123.47503662109375,22.24215795898438)" style="fill: rgb(255, 230, 145);"></path></g><g class="path" style="opacity: 1; transform-origin: 3.47496px -0.862841px; animation: 2.77778s linear -0.733333s infinite normal forwards running blink-70d40edf-64ea-47a5-b813-a86abcdc4f55;"><path d="M146.13-41.13L146.13-41.13L138.71-28.83L138.71-28.83Q138.24-30.39 137.50-32.34L137.50-32.34L137.50-32.34Q136.76-34.30 135.66-36.00L135.66-36.00L135.66-36.00Q134.57-37.70 133.05-38.85L133.05-38.85L133.05-38.85Q131.52-40 129.53-40L129.53-40L129.53-40Q127.70-40 126.35-39.06L126.35-39.06L126.35-39.06Q125-38.13 124.06-36.62L124.06-36.62L124.06-36.62Q123.13-35.12 122.52-33.22L122.52-33.22L122.52-33.22Q121.91-31.33 121.58-29.39L121.58-29.39L121.58-29.39Q121.25-27.46 121.13-25.68L121.13-25.68L121.13-25.68Q121.02-23.91 121.02-22.62L121.02-22.62L121.02 0L107.77 0L107.77-45.12L112.85-45.12L118.20-34.61L118.20-34.61Q119.30-37.15 120.70-39.28L120.70-39.28L120.70-39.28Q122.11-41.41 123.95-42.95L123.95-42.95L123.95-42.95Q125.78-44.49 128.11-45.35L128.11-45.35L128.11-45.35Q130.43-46.21 133.36-46.21L133.36-46.21L133.36-46.21Q134.88-46.21 136.76-45.96L136.76-45.96L136.76-45.96Q138.63-45.70 140.43-45.10L140.43-45.10L140.43-45.10Q142.23-44.49 143.75-43.52L143.75-43.52L143.75-43.52Q145.27-42.54 146.13-41.13" fill="#ffb6bb" stroke="none" stroke-width="none" transform="translate(-123.47503662109375,22.24215795898438)" style="fill: rgb(149, 213, 238);"></path></g><g class="path" style="opacity: 1; transform-origin: 48.71px -0.41284px; animation: 2.77778s linear -0.366667s infinite normal forwards running blink-70d40edf-64ea-47a5-b813-a86abcdc4f55;"><path d="M196.17-45.12L196.17 0L182.97 0L182.97-5.39L182.97-5.39Q180.63-2.19 177.32-0.64L177.32-0.64L177.32-0.64Q174.02 0.90 170.08 0.90L170.08 0.90L170.08 0.90Q164.92 0.90 160.86-0.94L160.86-0.94L160.86-0.94Q156.80-2.77 153.98-5.96L153.98-5.96L153.98-5.96Q151.17-9.14 149.69-13.44L149.69-13.44L149.69-13.44Q148.20-17.73 148.20-22.66L148.20-22.66L148.20-22.66Q148.20-27.58 149.69-31.88L149.69-31.88L149.69-31.88Q151.17-36.17 153.98-39.36L153.98-39.36L153.98-39.36Q156.80-42.54 160.86-44.38L160.86-44.38L160.86-44.38Q164.92-46.21 170.08-46.21L170.08-46.21L170.08-46.21Q172.70-46.21 175.06-45.43L175.06-45.43L175.06-45.43Q177.42-44.65 179.39-43.22L179.39-43.22L179.39-43.22Q181.37-41.80 182.87-39.79L182.87-39.79L182.87-39.79Q184.38-37.77 185.23-35.31L185.23-35.31L191.09-45.12L196.17-45.12zM182.89-22.66L182.89-22.66L182.89-22.66Q182.89-24.41 182.71-26.37L182.71-26.37L182.71-26.37Q182.54-28.32 182.11-30.23L182.11-30.23L182.11-30.23Q181.68-32.15 180.92-33.89L180.92-33.89L180.92-33.89Q180.16-35.63 178.96-36.97L178.96-36.97L178.96-36.97Q177.77-38.32 176.09-39.10L176.09-39.10L176.09-39.10Q174.41-39.88 172.19-39.88L172.19-39.88L172.19-39.88Q169.96-39.88 168.32-39.08L168.32-39.08L168.32-39.08Q166.68-38.28 165.51-36.93L165.51-36.93L165.51-36.93Q164.34-35.59 163.57-33.83L163.57-33.83L163.57-33.83Q162.81-32.07 162.38-30.16L162.38-30.16L162.38-30.16Q161.95-28.24 161.78-26.31L161.78-26.31L161.78-26.31Q161.60-24.38 161.60-22.66L161.60-22.66L161.60-22.66Q161.60-20.94 161.78-18.98L161.78-18.98L161.78-18.98Q161.95-17.03 162.38-15.12L162.38-15.12L162.38-15.12Q162.81-13.20 163.57-11.45L163.57-11.45L163.57-11.45Q164.34-9.69 165.51-8.34L165.51-8.34L165.51-8.34Q166.68-6.99 168.32-6.19L168.32-6.19L168.32-6.19Q169.96-5.39 172.19-5.39L172.19-5.39L172.19-5.39Q174.22-5.39 175.80-6.23L175.80-6.23L175.80-6.23Q177.38-7.07 178.57-8.48L178.57-8.48L178.57-8.48Q179.77-9.88 180.59-11.68L180.59-11.68L180.59-11.68Q181.41-13.48 181.91-15.39L181.91-15.39L181.91-15.39Q182.42-17.30 182.66-19.20L182.66-19.20L182.66-19.20Q182.89-21.09 182.89-22.66" fill="#ffb6bb" stroke="none" stroke-width="none" transform="translate(-123.47503662109375,22.24215795898438)" style="fill: rgb(88, 88, 114);"></path></g><g class="path" style="opacity: 1; transform-origin: 106.78px 3.94216px; animation: 2.77778s linear 0s infinite normal forwards running blink-70d40edf-64ea-47a5-b813-a86abcdc4f55;"><path d="M253.32-25.86L253.32-25.86L253.32-25.86Q253.32-21.29 252.21-16.33L252.21-16.33L252.21-16.33Q251.09-11.37 249.10-6.60L249.10-6.60L249.10-6.60Q247.11-1.84 244.34 2.36L244.34 2.36L244.34 2.36Q241.56 6.56 238.24 9.61L238.24 9.61L233.28 6.91L233.28 6.91Q234.34 4.96 235.27 2.54L235.27 2.54L235.27 2.54Q236.21 0.12 236.97-2.60L236.97-2.60L236.97-2.60Q237.73-5.31 238.34-8.20L238.34-8.20L238.34-8.20Q238.95-11.09 239.36-13.93L239.36-13.93L239.36-13.93Q239.77-16.76 239.98-19.43L239.98-19.43L239.98-19.43Q240.20-22.11 240.20-24.41L240.20-24.41L240.20-24.41Q240.20-25.94 240.08-27.68L240.08-27.68L240.08-27.68Q239.96-29.41 239.59-31.15L239.59-31.15L239.59-31.15Q239.22-32.89 238.59-34.49L238.59-34.49L238.59-34.49Q237.97-36.09 236.93-37.30L236.93-37.30L236.93-37.30Q235.90-38.52 234.43-39.26L234.43-39.26L234.43-39.26Q232.97-40 230.98-40L230.98-40L230.98-40Q229.02-40 227.50-39.12L227.50-39.12L227.50-39.12Q225.98-38.24 224.80-36.82L224.80-36.82L224.80-36.82Q223.63-35.39 222.79-33.55L222.79-33.55L222.79-33.55Q221.95-31.72 221.43-29.79L221.43-29.79L221.43-29.79Q220.90-27.85 220.66-25.98L220.66-25.98L220.66-25.98Q220.43-24.10 220.43-22.62L220.43-22.62L220.43 0L207.19 0L207.19-45.12L212.27-45.12L218.32-34.61L218.32-34.61Q219.41-37.23 221.05-39.38L221.05-39.38L221.05-39.38Q222.70-41.52 224.77-43.05L224.77-43.05L224.77-43.05Q226.84-44.57 229.36-45.39L229.36-45.39L229.36-45.39Q231.88-46.21 234.80-46.21L234.80-46.21L234.80-46.21Q239.49-46.21 242.97-44.69L242.97-44.69L242.97-44.69Q246.45-43.16 248.75-40.45L248.75-40.45L248.75-40.45Q251.05-37.73 252.19-34.00L252.19-34.00L252.19-34.00Q253.32-30.27 253.32-25.86" fill="#ffb6bb" stroke="none" stroke-width="none" transform="translate(-123.47503662109375,22.24215795898438)" style="fill: rgb(158, 68, 70);"></path></g></g>
</g>
</g>
<style id="blink-70d40edf-64ea-47a5-b813-a86abcdc4f55" data-anikit="">@keyframes blink-70d40edf-64ea-47a5-b813-a86abcdc4f55 {
  0% { opacity: 1; }
  49.75% { opacity: 1; }
  50.25% { opacity: 0; }
  99.5% { opacity: 0; }
  100% { opacity: 1; }
}</style></svg>